<svg xmlns="http://www.w3.org/2000/svg" fill="none" class="icon-svg icon-app-logo" viewBox="0 0 25.35 20.09"><path fill="#000" d="M20.9 6.03h-2.93l.28-1.83a.16.16 0 0 0-.16-.18h-1.9a.16.16 0 0 0-.15.14l-.29 1.87h-4.92l.28-1.83a.16.16 0 0 0-.16-.18H9.06a.16.16 0 0 0-.16.14l-.28 1.87H5.64a.16.16 0 0 0-.16.14l-.26 1.7c-.01.09.06.18.16.18h2.93l-.35 2.3c-.95-.18-1.93-.28-2.93-.3a.17.17 0 0 0-.16.15l-.26 1.69c-.01.1.07.18.16.18 1.27 0 2.12.11 2.89.27l-.54 3.57c-.02.1.06.18.16.18h1.88c.09 0 .15-.05.17-.13l.46-3.04c1.9.69 3.6 1.76 5.01 3.11.6.58 1.62.24 1.74-.58l.07-.48.14-.89h2.97c.09 0 .15-.06.17-.14l.25-1.69a.16.16 0 0 0-.16-.18h-2.93l.61-4.03h2.98c.08 0 .15-.06.16-.14l.26-1.69a.16.16 0 0 0-.17-.18zm-5.51 2.39-.65 4.31a.34.34 0 0 1-.53.22 16.19 16.19 0 0 0-3.86-1.96.32.32 0 0 1-.22-.36l.35-2.3a.33.33 0 0 1 .33-.28h4.25c.2 0 .36.17.33.37z"/><path fill="#000" d="M.24 13.62a6.62 6.62 0 0 0 2.47 4.33c1.2.93 2.68 1.63 5.45 1.95 1.26.15 2.78.19 4.51.19 1.74 0 3.26-.04 4.52-.2 2.77-.32 4.25-1.01 5.45-1.94a6.63 6.63 0 0 0 2.47-4.33c.18-1 .24-2.2.24-3.58 0-1.37-.06-2.58-.24-3.57a6.62 6.62 0 0 0-2.47-4.33C21.44 1.21 19.96.51 17.2.2a40.62 40.62 0 0 0-4.53-.2c-1.73 0-3.25.04-4.5.19C5.38.51 3.9 1.21 2.7 2.14A6.6 6.6 0 0 0 .24 6.46C.06 7.46 0 8.67 0 10.04s.06 2.59.24 3.58zM2.11 6.8c.32-1.7.92-2.5 1.8-3.21.82-.64 1.93-1.26 4.47-1.56 1.04-.12 2.4-.17 4.3-.17 1.88 0 3.24.05 4.28.17 2.54.3 3.66.92 4.48 1.56.87.71 1.47 1.5 1.79 3.2.14.78.21 1.8.21 3.25s-.07 2.48-.21 3.25a4.78 4.78 0 0 1-1.79 3.2c-.82.64-1.94 1.26-4.48 1.56-1.04.12-2.4.18-4.29.18-1.89 0-3.25-.06-4.29-.18-2.54-.3-3.65-.92-4.48-1.55a4.78 4.78 0 0 1-1.79-3.21 18.4 18.4 0 0 1-.2-3.25c0-1.44.06-2.47.2-3.24z"/></svg>