<?xml version="1.0" encoding="UTF-8" standalone="no"?>
<svg
   class="icon-svg icon-app-logo"
   width="25.3484"
   height="20.08893"
   viewBox="0 0 25.3484 20.08893"
   fill="none"
   version="1.1"
   id="svg6"
   sodipodi:docname="qqpd-brands-solid.svg"
   inkscape:version="1.3.2 (091e20e, 2023-11-25, custom)"
   xmlns:inkscape="http://www.inkscape.org/namespaces/inkscape"
   xmlns:sodipodi="http://sodipodi.sourceforge.net/DTD/sodipodi-0.dtd"
   xmlns="http://www.w3.org/2000/svg"
   xmlns:svg="http://www.w3.org/2000/svg">
  <sodipodi:namedview
     id="namedview6"
     pagecolor="#ffffff"
     bordercolor="#000000"
     borderopacity="0.25" />
  <defs
     id="defs1">
  </defs>
  <path
     d="m 20.900299,6.03156 h -2.9298 l 0.2763,-1.82941 c 0.0147,-0.09779 -0.0617,-0.18409 -0.1617,-0.18409 h -1.8865 c -0.0823,0 -0.1499,0.05753 -0.1617,0.13807 l -0.285,1.87543 h -4.9192 l 0.2762,-1.82941 c 0.0147,-0.09779 -0.0617,-0.18409 -0.1616,-0.18409 H 9.06361 c -0.08228,0 -0.14986,0.05753 -0.16162,0.13807 L 8.61695,6.03156 H 5.64014 c -0.08228,0 -0.14987,0.05753 -0.16163,0.13807 L 5.22285,7.8609301 c -0.01469,0.0978 0.06171,0.1841 0.16163,0.1841 H 8.31133 L 7.96164,10.34903 c -0.94917,-0.1783 -1.92773,-0.2818 -2.9298,-0.2905 -0.08228,0 -0.1528,0.0604 -0.16456,0.1381 l -0.25566,1.6913 c -0.01469,0.095 0.06465,0.1812 0.16163,0.1812 1.2636,0.0087 2.11579,0.1122 2.88571,0.2704 l -0.5407,3.5697 c -0.0147,0.0978 0.06171,0.1841 0.16162,0.1841 h 1.88365 c 0.08228,0 0.14987,-0.0576 0.16162,-0.1381 l 0.4613595,-3.0346 c 1.8953895,0.6846 3.6026895,1.7546 5.0161895,3.1123 0.5995,0.5752 1.6133,0.2329 1.7367,-0.5782 l 0.0735,-0.4861 0.1352,-0.8888 h 2.9768 c 0.0823,0 0.1499,-0.0576 0.1616,-0.1381 l 0.2557,-1.6913 c 0.0147,-0.0978 -0.0617,-0.1841 -0.1617,-0.1841 h -2.9298 l 0.6113,-4.0240999 h 2.9768 c 0.0823,0 0.1499,-0.0576 0.1616,-0.1381 l 0.2557,-1.6913601 c 0.0147,-0.09779 -0.0617,-0.18409 -0.1617,-0.18409 z m -5.5099,2.3874701 -0.6553,4.3116999 c -0.0382,0.2445 -0.3232,0.3567 -0.5289,0.2158 -1.1784,-0.8141 -2.4743,-1.4757 -3.8555,-1.9589 -0.1498,-0.0518 -0.2409,-0.1985 -0.2174,-0.3538 l 0.3497,-2.3097999 c 0.0235,-0.161 0.1645,-0.279 0.332,-0.279 H 15.0584 c 0.2057,0 0.3614,0.1784 0.332,0.3768 z"
     fill="currentColor"
     id="path1"
     style="fill:#000000" />
  <path
     d="m 0.240966,13.62273 c 0.408466,2.1947 1.290044,3.3683 2.465494,4.3233 1.20483,0.9319 2.68295,1.6309 5.45405,1.9531 1.25479,0.1467 2.782889,0.1898 4.513689,0.1898 1.7309,0 3.2589,-0.0431 4.5137,-0.1898 2.7682,-0.3251 4.249201,-1.024 5.4541,-1.9531 1.1725,-0.955 2.057,-2.1286 2.4655,-4.3233 0.1851,-0.9952 0.2409,-2.2062 0.2409,-3.5783 0,-1.3719999 -0.0558,-2.5858999 -0.2409,-3.57823 -0.4085,-2.19471 -1.2901,-3.36829 -2.4655,-4.32327 C 21.4371,1.21097 19.958999,0.512 17.187899,0.18984 15.9331,0.04314 14.4051,0 12.6742,0 10.9434,0 9.4153,0.04314 8.16051,0.18984 5.39234,0.51488 3.91129,1.21385 2.70646,2.14293 1.53101,3.09503 0.649432,4.26861 0.240966,6.46332 0.0558335,7.4585301 0,8.6695301 0,10.04163 c 0,1.372 0.0558335,2.5859 0.240966,3.5782 z M 2.11286,6.7969901 C 2.43023,5.09127 3.03264,4.30025 3.90247,3.5869 4.72528,2.95408 5.84489,2.33278 8.38385,2.03363 9.42118,1.91282 10.784699,1.85529 12.6713,1.85529 c 1.8866,0 3.2501,0.05753 4.2874,0.17834 2.539,0.29627 3.6586,0.92045 4.4814,1.55327 0.8698,0.71335 1.4722,1.50437 1.7896,3.2100901 0.143999,0.77084 0.2116,1.80064 0.2116,3.2446399 0,1.4439 -0.0676,2.4737 -0.2116,3.2446 -0.3174,1.7057 -0.9198,2.4967 -1.7896,3.2101 -0.8228,0.6328 -1.9424,1.2541 -4.4814,1.5532 -1.0373,0.1208 -2.4008,0.1784 -4.2874,0.1784 -1.8866,0 -3.25012,-0.0576 -4.28745,-0.1784 -2.53896,-0.2962 -3.65857,-0.9204 -4.48138,-1.5532 -0.86983,-0.7134 -1.47224,-1.5044 -1.78961,-3.2101 -0.14399,-0.7709 -0.21158,-1.8007 -0.21158,-3.2446 0,-1.4439999 0.06759,-2.4737999 0.21158,-3.2446399 z"
     fill="currentColor"
     id="path2"
     style="fill:#000000" />
</svg>
